<?xml version="1.0" standalone="no"?>
<!DOCTYPE svg PUBLIC "-//W3C//DTD SVG 20010904//EN"
 "http://www.w3.org/TR/2001/REC-SVG-20010904/DTD/svg10.dtd">
<svg version="1.0" xmlns="http://www.w3.org/2000/svg"
 width="1024.000000pt" height="1024.000000pt" viewBox="0 0 1024.000000 1024.000000"
 preserveAspectRatio="xMidYMid meet">

<g transform="translate(0.000000,1024.000000) scale(0.100000,-0.100000)"
fill="#000000" stroke="none">
<path d="M6467 8999 c-92 -13 -136 -28 -147 -50 -7 -12 -8 -43 -4 -79 6 -59 6
-59 -27 -80 -62 -38 -76 -37 -123 9 -55 54 -78 53 -148 -6 -148 -126 -314
-365 -398 -575 -31 -75 -22 -94 70 -153 78 -50 85 -69 52 -135 l-17 -35 -105
-5 -105 -5 -17 -35 c-18 -37 -62 -244 -73 -346 -6 -54 -5 -63 14 -81 11 -10
47 -27 78 -37 93 -29 103 -38 103 -99 0 -77 -11 -86 -123 -107 -104 -19 -105
-23 -84 -229 19 -193 30 -236 59 -252 12 -7 60 -16 107 -20 97 -10 116 -23
126 -79 10 -59 0 -74 -65 -105 -110 -52 -121 -81 -74 -190 171 -398 214 -562
214 -815 0 -113 1 -120 23 -134 27 -18 42 -20 517 -101 212 -35 544 -92 738
-125 194 -33 364 -57 377 -54 34 9 43 22 64 105 41 155 102 360 156 522 98
296 155 485 155 516 0 39 -23 62 -99 100 -65 33 -76 51 -66 111 9 56 30 69
126 80 45 5 89 15 96 22 18 19 32 131 39 323 6 165 6 171 -15 198 -13 15 -31
27 -41 27 -37 0 -121 22 -134 35 -18 19 -30 100 -17 123 5 10 40 31 78 47 99
41 96 38 90 125 -6 79 -69 346 -93 392 -21 40 -44 48 -117 41 -90 -8 -114 0
-132 44 -24 57 -16 83 35 120 82 61 90 70 90 102 0 42 -92 223 -181 357 -80
119 -248 301 -287 311 -14 3 -31 2 -38 -3 -7 -5 -31 -22 -53 -37 l-39 -28 -41
20 c-53 27 -63 47 -49 99 16 63 6 86 -49 109 -154 65 -294 84 -446 62z"/>
<path d="M3535 8255 c-33 -7 -97 -27 -142 -45 -95 -36 -102 -47 -84 -130 15
-70 16 -65 -34 -100 -51 -35 -65 -34 -120 10 -21 17 -46 30 -56 30 -45 0 -221
-205 -327 -382 -71 -118 -172 -326 -172 -355 0 -28 42 -71 99 -104 57 -32 65
-51 46 -109 -23 -70 -30 -74 -134 -66 -82 7 -90 6 -108 -14 -21 -22 -57 -143
-97 -330 -44 -206 -42 -218 52 -255 92 -37 102 -47 102 -110 0 -75 -18 -93
-105 -106 -89 -14 -101 -21 -116 -66 -13 -40 -7 -280 11 -422 14 -108 22 -116
125 -131 62 -9 92 -18 105 -32 19 -21 31 -99 18 -122 -4 -8 -39 -32 -78 -55
-38 -23 -74 -50 -80 -61 -20 -38 -8 -104 57 -312 36 -117 84 -269 105 -338 59
-189 122 -412 154 -540 29 -119 52 -160 94 -160 11 0 125 20 253 44 127 25
257 49 287 55 30 5 208 39 395 75 187 35 402 76 478 91 147 27 187 39 199 58
4 7 8 80 8 162 1 247 31 390 136 648 156 381 163 407 127 439 -10 8 -43 27
-74 41 -31 14 -62 33 -69 42 -17 20 -8 111 13 132 10 11 51 21 113 29 58 7
103 18 111 27 24 23 32 87 39 283 8 214 9 213 -100 234 -84 16 -104 32 -112
92 -9 67 9 91 92 118 75 25 104 49 104 85 0 82 -62 397 -86 433 -13 20 -22 22
-108 22 -109 0 -130 11 -144 75 -12 56 -1 74 73 120 83 50 92 74 64 158 -35
105 -144 321 -211 419 -69 101 -186 226 -236 252 -37 19 -71 10 -95 -27 -22
-33 -51 -42 -90 -26 -61 24 -67 34 -60 105 5 53 3 68 -12 84 -40 44 -275 65
-410 35z"/>
<path d="M5728 5053 c-9 -2 -23 -21 -32 -42 -24 -62 -96 -308 -96 -330 0 -37
34 -57 181 -106 79 -26 150 -52 158 -58 20 -16 9 -106 -15 -124 -15 -11 -54
-12 -194 -7 -217 8 -213 10 -236 -116 -9 -47 -16 -136 -17 -199 -2 -110 -1
-114 23 -132 14 -11 84 -32 158 -48 73 -16 140 -35 148 -41 18 -16 18 -74 -1
-90 -8 -6 -69 -26 -136 -43 -101 -27 -125 -37 -142 -59 l-20 -27 27 -75 c86
-235 274 -411 531 -495 128 -43 203 -54 345 -54 195 0 345 45 501 149 71 47
159 136 185 186 26 50 12 70 -101 153 -58 42 -109 84 -114 93 -6 11 -4 29 4
50 16 37 21 38 205 18 115 -12 166 -8 182 16 23 36 88 308 88 368 0 15 -8 34
-18 43 -10 9 -89 38 -175 63 -86 26 -164 52 -173 59 -13 9 -15 21 -10 58 12
76 14 77 207 77 156 0 171 2 189 20 11 11 20 29 20 39 0 11 5 88 11 172 6 84
8 162 5 175 -9 33 -39 40 -415 101 -127 20 -136 14 -169 -121 -35 -137 -23
-133 -262 -91 -283 50 -288 51 -305 65 -14 11 -15 31 -9 131 l7 117 -29 15
c-23 12 -253 57 -469 92 -11 2 -27 1 -37 -2z"/>
<path d="M4290 3924 c-273 -55 -269 -53 -286 -80 -14 -21 -14 -36 -3 -130 l13
-107 -23 -18 c-13 -11 -31 -19 -40 -19 -9 0 -116 -19 -238 -42 -254 -48 -251
-48 -273 40 -45 181 -45 181 -186 157 -194 -33 -387 -74 -397 -84 -7 -7 -7
-69 2 -198 11 -186 12 -188 38 -212 27 -24 29 -24 184 -18 117 4 161 3 174 -7
17 -12 37 -90 28 -112 -6 -16 -57 -37 -209 -84 -76 -23 -139 -49 -149 -60 -22
-25 -17 -81 24 -243 32 -127 47 -165 73 -181 15 -9 159 0 305 21 41 5 43 4 59
-30 9 -19 14 -42 11 -51 -3 -8 -50 -48 -104 -87 -115 -84 -123 -93 -123 -133
0 -25 16 -46 93 -121 160 -156 315 -223 542 -232 442 -18 809 213 931 586 16
51 16 53 -3 79 -16 22 -41 32 -141 58 -66 17 -128 36 -136 44 -19 15 -21 73
-3 88 6 5 76 25 155 45 79 19 151 42 162 52 26 24 26 97 1 266 -29 197 -15
188 -277 175 -168 -9 -169 -8 -185 61 -13 60 4 76 133 119 62 20 132 45 156
55 70 30 71 42 12 230 -29 90 -58 174 -66 187 -19 29 -47 28 -254 -14z"/>
</g>
</svg>
